<svg width="1052" height="752" viewBox="0 0 1052 752" fill="none" xmlns="http://www.w3.org/2000/svg">
<g filter="url(#filter0_d_12_9)">
<path d="M635.714 322.555C635.627 309.9 636.026 297.717 635.326 285.597C634.536 271.928 626.541 264.562 612.871 263.683C609.729 263.481 606.562 263.653 603.042 263.653C603.042 252.119 603.042 240.909 603.042 229.185C620.231 228.95 637.464 227.834 653.352 235.902C668.941 243.816 677.276 257.418 678.012 274.379C679.167 300.976 678.844 327.639 679.032 354.275C679.125 367.505 683.503 372.068 696.582 372.063C699.395 372.062 702.208 372.063 705.392 372.063C705.392 383.733 705.392 395.139 705.392 407.397C702.12 407.397 698.715 407.382 695.309 407.399C684.066 407.456 679.101 412.32 679.08 423.478C679.035 446.799 679.388 470.127 678.874 493.436C678.69 501.799 677.535 510.457 674.985 518.39C668.634 538.144 653.065 547.045 633.601 549.303C623.628 550.459 613.41 549.506 603 549.506C603 538.731 603 527.48 603 515.638C606.791 515.638 610.409 515.802 614.009 515.608C625.899 514.968 634.177 507.565 635.143 495.72C635.912 486.284 635.603 476.757 635.705 467.27C635.89 450.121 635.66 432.958 636.299 415.826C636.8 402.399 642.055 395.498 654.075 390.027C653.734 389.648 653.478 389.104 653.07 388.944C641.27 384.308 636.723 374.736 636.234 363.007C635.679 349.705 635.855 336.373 635.714 322.555Z" fill="#FDFDFD"/>
<path d="M447.156 531.185C447.156 537.64 447.156 543.595 447.156 549.875C433.116 550.118 419.503 550.773 406.193 546.968C386.543 541.35 373.444 525.91 372.305 504.804C371.203 484.378 371.562 463.871 371.327 443.398C371.241 435.904 371.448 428.403 371.238 420.913C371.002 412.476 365.786 407.38 357.354 407.096C353.371 406.962 349.379 407.073 345 407.073C345 395.233 345 383.706 345 371.688C347.604 371.688 350.056 371.68 352.507 371.689C367.119 371.744 371.311 367.626 371.314 353.183C371.318 330.862 370.917 308.531 371.51 286.226C371.749 277.208 372.883 267.805 375.83 259.351C382.73 239.553 399.021 231.467 418.606 229.465C427.81 228.523 437.19 229.303 446.824 229.303C446.824 240.18 446.824 251.395 446.824 262.752C442.18 263.174 437.373 263.237 432.718 264.111C422.297 266.068 415.988 272.943 415.179 283.6C414.575 291.553 414.71 299.568 414.679 307.557C414.618 323.381 414.78 339.206 414.644 355.029C414.518 369.648 412.062 383.156 394.994 389.364C411.736 395.414 414.503 408.569 414.616 422.958C414.784 444.445 414.644 465.933 414.679 487.421C414.684 490.078 414.827 492.75 415.136 495.389C416.513 507.138 424.507 514.61 436.398 515.232C439.712 515.406 443.043 515.259 447.156 515.259C447.156 520.526 447.156 525.606 447.156 531.185Z" fill="#FDFDFD"/>
<path d="M467.099 57.1584C473.622 41.3287 484.439 28.7652 497.9 18.6452C505.954 12.5902 514.436 6.30117 523.742 2.88992C541.075 -3.46341 557.175 0.731593 569.539 14.7566C581.559 28.3917 583.378 44.1178 575.806 60.9748C570.791 60.9798 574.878 63.7332 574.001 64.8256C574.001 64.8256 574.047 65.115 573.609 65.1464C572.308 64.7692 571.302 63.8424 570.607 64.0351C565.901 65.3404 561.259 66.8746 556.601 68.3523C555.213 68.7926 553.239 70.1223 552.558 69.6291C546.299 65.1013 539.282 67.5527 532.7 67.442C511.298 67.0817 489.887 67.3071 468.706 67.3071C468.005 64.7281 467.241 61.9214 466.478 59.1147C466.478 59.1147 466.432 59.0612 466.771 59.0778C467.476 58.8694 467.841 58.6441 468.205 58.4189C467.837 57.9987 467.468 57.5786 467.099 57.1584Z" fill="#694DF8"/>
<path d="M466.203 59.315C467.241 61.9213 468.005 64.7281 468.706 67.3071C489.887 67.3071 511.298 67.0817 532.7 67.442C539.282 67.5527 546.299 65.1013 552.558 69.6291C553.239 70.1223 555.213 68.7926 556.601 68.3523C561.259 66.8746 565.901 65.3404 570.607 64.0351C571.302 63.8424 572.308 64.7692 573.498 65.2429C572.716 66.9171 571.606 68.5263 570.121 70.1572C569.682 70.1287 569.617 70.0787 569.552 70.0286C569.659 70.1584 569.766 70.2881 569.873 70.4179C564.709 78.207 556.847 81.7921 548.28 84.2902C541.636 86.2277 534.999 88.1879 527.706 90.2363C526.645 90.6804 526.236 91.0259 525.827 91.3716C523.534 93.8591 521.242 96.3465 518.558 99.2379C517.96 99.874 517.856 100.146 517.857 100.457C517.857 100.457 517.852 100.919 517.529 101.354C517.125 102.41 517.044 103.031 516.964 103.653C516.919 104.33 516.875 105.007 516.516 106.249C516.675 107.982 517.148 109.15 517.621 110.318C517.621 110.318 517.88 110.627 517.786 111.216C515.699 112.639 513.706 114.189 511.712 114.191C498.134 114.201 484.554 113.903 470.976 113.663C468.001 113.611 465.029 113.392 462.056 113.25C461.966 112.814 461.877 112.377 462.051 111.372C461.868 109.638 461.421 108.471 460.974 107.305C460.909 107.143 460.844 106.981 460.978 106.402C460.825 105.414 460.473 104.844 460.12 104.273C457.612 88.7773 459.181 73.8105 466.203 59.315ZM562.233 69.4788C562.583 69.4836 562.934 69.4915 563.283 69.4749C563.292 69.4747 563.298 69.0764 563.289 69.0757C562.94 69.0477 562.59 69.045 562.233 69.4788Z" fill="#5D3FE8"/>
<path d="M462.053 113.617C465.029 113.392 468.001 113.611 470.976 113.663C484.554 113.903 498.134 114.201 511.712 114.191C513.706 114.189 515.699 112.639 517.808 111.417C525.771 117.588 533.618 124.149 541.663 131.318C542.497 132.369 543.134 132.812 543.771 133.255C545.331 134.792 546.892 136.329 548.638 138.463C549.658 139.837 550.493 140.614 551.328 141.39C551.429 141.529 551.529 141.667 551.736 142.391C552.861 144.403 553.88 145.829 554.899 147.256C554.899 147.256 555.073 147.555 554.981 148.102C554.848 150.034 554.394 151.576 554.847 152.775C555.927 155.633 557.878 158.212 558.657 161.123C559.594 164.63 558.23 166.625 553.958 166.415C547.18 166.082 540.374 166.327 534.107 166.327C532.402 165.108 531.079 163.726 529.463 163.09C524.756 161.237 519.947 159.635 515.148 158.023C508.596 155.82 502.017 153.699 495.45 151.543C495.069 151.444 494.688 151.345 493.969 150.784C491.688 149.325 489.746 148.328 487.804 147.332C487.804 147.332 487.741 147.33 487.634 147.087C487.318 146.579 487.045 146.439 486.708 146.423C486.545 146.388 486.382 146.353 485.948 145.875C483.724 144.07 481.771 142.708 479.817 141.346C479.223 140.803 478.628 140.261 477.865 139.115C475.841 136.754 473.985 134.995 472.129 133.236C471.965 132.871 471.801 132.506 471.564 131.589C471.233 130.833 470.975 130.628 470.718 130.424C470.718 130.424 470.673 130.407 470.578 130.157C470.294 129.622 470.033 129.439 469.699 129.36C469.699 129.36 469.494 129.067 469.478 128.613C469.215 127.91 468.968 127.661 468.72 127.411C466.497 122.935 464.274 118.46 462.053 113.617Z" fill="#5331D7"/>
<path d="M495.614 151.841C502.017 153.699 508.596 155.82 515.148 158.023C519.947 159.635 524.756 161.237 529.463 163.09C531.079 163.726 532.402 165.108 534.107 166.327C540.374 166.327 547.18 166.082 553.958 166.415C558.23 166.625 559.594 164.63 558.657 161.123C557.878 158.212 555.927 155.633 554.847 152.775C554.394 151.576 554.848 150.034 554.977 148.275C562.55 155.774 563.961 179.098 551.325 191.635C545.937 196.981 539.692 201.517 533.558 206.042C526.833 211.002 522.244 217.121 520.919 225.495C520.743 226.603 520.302 227.668 519.875 229.124C515.706 228.079 515.489 224.77 515.127 221.794C514.05 212.936 516.933 205.149 521.83 197.917C525.182 192.965 528.589 188.032 531.612 182.879C536.364 174.78 534.666 168.301 526.194 164.34C519.298 161.115 511.89 158.999 504.764 156.249C501.696 155.065 498.768 153.521 495.614 151.841Z" fill="#411DB9"/>
<path d="M66.336 646.92C71.5413 648.029 75.7227 650.632 78.88 654.728C82.0373 658.739 83.616 663.347 83.616 668.552C83.616 676.061 80.9707 682.035 75.68 686.472C70.4747 690.824 63.1787 693 53.792 693H11.936V603.144H52.384C61.5147 603.144 68.64 605.235 73.76 609.416C78.9653 613.597 81.568 619.272 81.568 626.44C81.568 631.731 80.16 636.125 77.344 639.624C74.6133 643.123 70.944 645.555 66.336 646.92ZM33.824 639.496H48.16C51.744 639.496 54.4747 638.728 56.352 637.192C58.3147 635.571 59.296 633.224 59.296 630.152C59.296 627.08 58.3147 624.733 56.352 623.112C54.4747 621.491 51.744 620.68 48.16 620.68H33.824V639.496ZM49.952 675.336C53.6213 675.336 56.4373 674.525 58.4 672.904C60.448 671.197 61.472 668.765 61.472 665.608C61.472 662.451 60.4053 659.976 58.272 658.184C56.224 656.392 53.3653 655.496 49.696 655.496H33.824V675.336H49.952ZM152.247 677.128H118.711L113.335 693H90.423L122.935 603.144H148.279L180.791 693H157.623L152.247 677.128ZM146.615 660.232L135.479 627.336L124.471 660.232H146.615ZM236.51 693L217.822 659.08H212.574V693H190.686V603.144H227.422C234.505 603.144 240.521 604.381 245.47 606.856C250.505 609.331 254.259 612.744 256.734 617.096C259.209 621.363 260.446 626.141 260.446 631.432C260.446 637.405 258.739 642.739 255.326 647.432C251.998 652.125 247.049 655.453 240.478 657.416L261.214 693H236.51ZM212.574 643.592H226.142C230.153 643.592 233.139 642.611 235.102 640.648C237.15 638.685 238.174 635.912 238.174 632.328C238.174 628.915 237.15 626.227 235.102 624.264C233.139 622.301 230.153 621.32 226.142 621.32H212.574V643.592ZM328.586 646.92C333.791 648.029 337.973 650.632 341.13 654.728C344.287 658.739 345.866 663.347 345.866 668.552C345.866 676.061 343.221 682.035 337.93 686.472C332.725 690.824 325.429 693 316.042 693H274.186V603.144H314.634C323.765 603.144 330.89 605.235 336.01 609.416C341.215 613.597 343.818 619.272 343.818 626.44C343.818 631.731 342.41 636.125 339.594 639.624C336.863 643.123 333.194 645.555 328.586 646.92ZM296.074 639.496H310.41C313.994 639.496 316.725 638.728 318.602 637.192C320.565 635.571 321.546 633.224 321.546 630.152C321.546 627.08 320.565 624.733 318.602 623.112C316.725 621.491 313.994 620.68 310.41 620.68H296.074V639.496ZM312.202 675.336C315.871 675.336 318.687 674.525 320.65 672.904C322.698 671.197 323.722 668.765 323.722 665.608C323.722 662.451 322.655 659.976 320.522 658.184C318.474 656.392 315.615 655.496 311.946 655.496H296.074V675.336H312.202ZM401.057 693.896C392.609 693.896 384.844 691.933 377.761 688.008C370.764 684.083 365.174 678.621 360.993 671.624C356.897 664.541 354.849 656.605 354.849 647.816C354.849 639.027 356.897 631.133 360.993 624.136C365.174 617.139 370.764 611.677 377.761 607.752C384.844 603.827 392.609 601.864 401.057 601.864C409.505 601.864 417.228 603.827 424.225 607.752C431.308 611.677 436.854 617.139 440.865 624.136C444.961 631.133 447.009 639.027 447.009 647.816C447.009 656.605 444.961 664.541 440.865 671.624C436.769 678.621 431.222 684.083 424.225 688.008C417.228 691.933 409.505 693.896 401.057 693.896ZM401.057 673.928C408.225 673.928 413.942 671.539 418.209 666.76C422.561 661.981 424.737 655.667 424.737 647.816C424.737 639.88 422.561 633.565 418.209 628.872C413.942 624.093 408.225 621.704 401.057 621.704C393.804 621.704 388.001 624.051 383.649 628.744C379.382 633.437 377.249 639.795 377.249 647.816C377.249 655.752 379.382 662.109 383.649 666.888C388.001 671.581 393.804 673.928 401.057 673.928ZM491.698 693.896C485.127 693.896 479.239 692.829 474.034 690.696C468.829 688.563 464.647 685.405 461.49 681.224C458.418 677.043 456.797 672.008 456.626 666.12H479.922C480.263 669.448 481.415 672.008 483.378 673.8C485.341 675.507 487.901 676.36 491.058 676.36C494.301 676.36 496.861 675.635 498.738 674.184C500.615 672.648 501.554 670.557 501.554 667.912C501.554 665.693 500.786 663.859 499.25 662.408C497.799 660.957 495.965 659.763 493.746 658.824C491.613 657.885 488.541 656.819 484.53 655.624C478.727 653.832 473.991 652.04 470.322 650.248C466.653 648.456 463.495 645.811 460.85 642.312C458.205 638.813 456.882 634.248 456.882 628.616C456.882 620.253 459.911 613.725 465.97 609.032C472.029 604.253 479.922 601.864 489.65 601.864C499.549 601.864 507.527 604.253 513.586 609.032C519.645 613.725 522.887 620.296 523.314 628.744H499.634C499.463 625.843 498.397 623.581 496.434 621.96C494.471 620.253 491.954 619.4 488.882 619.4C486.237 619.4 484.103 620.125 482.482 621.576C480.861 622.941 480.05 624.947 480.05 627.592C480.05 630.493 481.415 632.755 484.146 634.376C486.877 635.997 491.143 637.747 496.946 639.624C502.749 641.587 507.442 643.464 511.026 645.256C514.695 647.048 517.853 649.651 520.498 653.064C523.143 656.477 524.466 660.872 524.466 666.248C524.466 671.368 523.143 676.019 520.498 680.2C517.938 684.381 514.183 687.709 509.234 690.184C504.285 692.659 498.439 693.896 491.698 693.896ZM593.872 677.128H560.336L554.96 693H532.048L564.56 603.144H589.904L622.416 693H599.248L593.872 677.128ZM588.24 660.232L577.104 627.336L566.096 660.232H588.24Z" fill="white"/>
<path d="M655.724 647.944C655.724 639.069 657.644 631.176 661.484 624.264C665.324 617.267 670.657 611.848 677.484 608.008C684.396 604.083 692.204 602.12 700.908 602.12C711.575 602.12 720.705 604.936 728.3 610.568C735.895 616.2 740.972 623.88 743.532 633.608H719.468C717.676 629.853 715.116 626.995 711.788 625.032C708.545 623.069 704.833 622.088 700.652 622.088C693.911 622.088 688.449 624.435 684.268 629.128C680.087 633.821 677.996 640.093 677.996 647.944C677.996 655.795 680.087 662.067 684.268 666.76C688.449 671.453 693.911 673.8 700.652 673.8C704.833 673.8 708.545 672.819 711.788 670.856C715.116 668.893 717.676 666.035 719.468 662.28H743.532C740.972 672.008 735.895 679.688 728.3 685.32C720.705 690.867 711.575 693.64 700.908 693.64C692.204 693.64 684.396 691.72 677.484 687.88C670.657 683.955 665.324 678.536 661.484 671.624C657.644 664.712 655.724 656.819 655.724 647.944ZM799.432 693.896C790.984 693.896 783.219 691.933 776.136 688.008C769.139 684.083 763.549 678.621 759.368 671.624C755.272 664.541 753.224 656.605 753.224 647.816C753.224 639.027 755.272 631.133 759.368 624.136C763.549 617.139 769.139 611.677 776.136 607.752C783.219 603.827 790.984 601.864 799.432 601.864C807.88 601.864 815.603 603.827 822.6 607.752C829.683 611.677 835.229 617.139 839.24 624.136C843.336 631.133 845.384 639.027 845.384 647.816C845.384 656.605 843.336 664.541 839.24 671.624C835.144 678.621 829.597 684.083 822.6 688.008C815.603 691.933 807.88 693.896 799.432 693.896ZM799.432 673.928C806.6 673.928 812.317 671.539 816.584 666.76C820.936 661.981 823.112 655.667 823.112 647.816C823.112 639.88 820.936 633.565 816.584 628.872C812.317 624.093 806.6 621.704 799.432 621.704C792.179 621.704 786.376 624.051 782.024 628.744C777.757 633.437 775.624 639.795 775.624 647.816C775.624 655.752 777.757 662.109 782.024 666.888C786.376 671.581 792.179 673.928 799.432 673.928ZM891.225 603.144C900.697 603.144 908.974 605.021 916.057 608.776C923.14 612.531 928.601 617.821 932.441 624.648C936.366 631.389 938.329 639.197 938.329 648.072C938.329 656.861 936.366 664.669 932.441 671.496C928.601 678.323 923.097 683.613 915.929 687.368C908.846 691.123 900.612 693 891.225 693H857.561V603.144H891.225ZM889.817 674.056C898.094 674.056 904.537 671.795 909.145 667.272C913.753 662.749 916.057 656.349 916.057 648.072C916.057 639.795 913.753 633.352 909.145 628.744C904.537 624.136 898.094 621.832 889.817 621.832H879.449V674.056H889.817ZM972.449 620.68V638.856H1001.76V655.752H972.449V675.464H1005.6V693H950.561V603.144H1005.6V620.68H972.449Z" fill="#9480FF"/>
<path d="M1030.05 694.024C1026.21 694.024 1023.05 692.915 1020.58 690.696C1018.19 688.392 1017 685.576 1017 682.248C1017 678.835 1018.19 675.976 1020.58 673.672C1023.05 671.368 1026.21 670.216 1030.05 670.216C1033.81 670.216 1036.88 671.368 1039.27 673.672C1041.74 675.976 1042.98 678.835 1042.98 682.248C1042.98 685.576 1041.74 688.392 1039.27 690.696C1036.88 692.915 1033.81 694.024 1030.05 694.024Z" fill="#947FFF"/>
</g>
<defs>
<filter id="filter0_d_12_9" x="0" y="0" width="1052" height="752" filterUnits="userSpaceOnUse" color-interpolation-filters="sRGB">
<feFlood flood-opacity="0" result="BackgroundImageFix"/>
<feColorMatrix in="SourceAlpha" type="matrix" values="0 0 0 0 0 0 0 0 0 0 0 0 0 0 0 0 0 0 127 0" result="hardAlpha"/>
<feOffset dy="4"/>
<feGaussianBlur stdDeviation="2"/>
<feComposite in2="hardAlpha" operator="out"/>
<feColorMatrix type="matrix" values="0 0 0 0 0 0 0 0 0 0 0 0 0 0 0 0 0 0 0.25 0"/>
<feBlend mode="normal" in2="BackgroundImageFix" result="effect1_dropShadow_12_9"/>
<feBlend mode="normal" in="SourceGraphic" in2="effect1_dropShadow_12_9" result="shape"/>
</filter>
</defs>
</svg>
